# xmcd
#
# Track frame offsets:
#	150
#	12630
#	25551
#	38863
#	49517
#	60800
#	90579
#	102090
#	113482
#	124968
#	134460
#	145567
#	161212
#	171959
#	184497
#	195604
#
# Disc length: 3061 seconds
#
# Revision: 1
# Processed by: cddbd v1.5.2PL0 Copyright (c) Steve Scherf et al.
# Submitted via: audiograbber 1.83.01
#
DISCID=d10bf310
DTITLE=Charley Pride - The Charley Pride Collection
DYEAR=1999
DGENRE=Country
TTITLE0=Crystal Chandeliers
TTITLE1=Kaw-Liga
TTITLE2=(I'm So Afraid Of) Losing You Again
TTITLE3=Oklahoma Morning
TTITLE4=It's Gonna Take Little Bit Longer
TTITLE5=Medley - Does My Ring Hurt Your Finger,  Too Good To Be True,  I'd Rath
TTITLE5=er Love You,  All I Have To Offer You Is Me,  I Wonder Could I Live The
TTITLE5=re Anymore,  Is Anyone Going To San Amtone,  I'm Just Me 
TTITLE6=Shutters and Boards
TTITLE7=The Happiness Of Having You
TTITLE8=My Eyes Can Only See As Far As You
TTITLE9=Kiss An Angel Good Morning
TTITLE10=Louisiana Man
TTITLE11=Let Me Live In The Light Of his Love
TTITLE12=Mississippi Cotton Pickin' Delta Town
TTITLE13=Help Me Make It Through The Night
TTITLE14=Louisiana Man
TTITLE15=Medley - There Goes My Everything,  Lovesick Blues,  Me And Bobby McGe
TTITLE15=e
EXTD=
EXTT0=
EXTT1=
EXTT2=
EXTT3=
EXTT4=
EXTT5=
EXTT6=
EXTT7=
EXTT8=
EXTT9=
EXTT10=
EXTT11=
EXTT12=
EXTT13=
EXTT14=
EXTT15=
PLAYORDER=
